<svg width="64" height="64" viewBox="0 0 64 64" fill="none" xmlns="http://www.w3.org/2000/svg">
  <defs>
    <linearGradient id="bg" x1="8" y1="8" x2="56" y2="56" gradientUnits="userSpaceOnUse">
      <stop stop-color="#BFDBFE"/>
      <stop offset="1" stop-color="#C4B5FD"/>
    </linearGradient>
  </defs>
  <circle cx="32" cy="32" r="30" fill="url(#bg)"/>
  <ellipse cx="32" cy="50" rx="15" ry="10" fill="#4338CA" fill-opacity="0.85"/>
  <circle cx="32" cy="26" r="11" fill="#F8D2C0"/>
  <path d="M21 24C21 17.5 25.8 13 32 13C38.2 13 43 17.5 43 24V28H21V24Z" fill="#1E1B4B"/>
  <circle cx="27.5" cy="25.5" r="1.2" fill="#374151"/>
  <circle cx="36.5" cy="25.5" r="1.2" fill="#374151"/>
  <path d="M28 30.5C29.2 31.9 30.5 32.6 32 32.6C33.5 32.6 34.8 31.9 36 30.5" stroke="#9A3412" stroke-width="1.8" stroke-linecap="round"/>
  <path d="M24 47C24 41.8 27.6 38 32 38C36.4 38 40 41.8 40 47V50H24V47Z" fill="#4F46E5"/>
</svg>
